<svg width="110" height="110" viewBox="0 0 110 110" fill="none" xmlns="http://www.w3.org/2000/svg">
<path d="M110 55C110 85.3387 85.3387 110 55 110C24.6613 110 0 85.3387 0 55C0 24.6613 24.6613 0 55 0C85.3387 0 110 24.6613 110 55Z" fill="#1BCEB8"/>
<path d="M55 0C85.3387 0 110 24.6613 110 55C110 85.3387 85.3387 110 55 110" fill="#09ADB5"/>
<path d="M16.1451 16.1452C37.6129 -5.32259 72.3871 -5.32259 93.8548 16.1452C115.323 37.6129 115.323 72.3871 93.8548 93.8548" fill="#0DBFBA"/>
<path d="M78.2419 56.7742H31.7581C30.3387 56.7742 29.0968 56.4194 29.0968 55C29.0968 53.5806 30.3387 53.2258 31.7581 53.2258H78.2419C79.6613 53.2258 80.9032 53.5806 80.9032 55C80.9032 56.4194 79.6613 56.7742 78.2419 56.7742Z" fill="#EEFFFF"/>
<path d="M55 80.7258C53.5806 80.7258 53.2258 79.6613 53.2258 78.0645V31.7581C53.2258 30.3387 53.5806 29.0968 55 29.0968C56.4193 29.0968 56.7742 30.1613 56.7742 31.7581V78.2419C56.7742 79.6613 56.4193 80.7258 55 80.7258Z" fill="#EEFFFF"/>
</svg>
